<?xml version="1.0" encoding="UTF-8" standalone="no"?>
<!DOCTYPE svg PUBLIC "-//W3C//DTD SVG 1.1//EN" "http://www.w3.org/Graphics/SVG/1.1/DTD/svg11.dtd">
<svg width="100%" height="100%" viewBox="0 0 392 914" version="1.1" xmlns="http://www.w3.org/2000/svg" xmlns:xlink="http://www.w3.org/1999/xlink" xml:space="preserve" xmlns:serif="http://www.serif.com/" style="fill-rule:evenodd;clip-rule:evenodd;stroke-linejoin:round;stroke-miterlimit:2;">
    <path id="cheveux" d="M146.636,99.782C146.636,99.782 142.037,67.642 143.104,56.102C146.475,19.665 222.432,23.513 233.071,48.269C238.577,61.081 229.344,97.921 229.344,97.921L146.636,99.782Z" style="fill:rgb(112,112,112);"/>
    <g id="corp" transform="matrix(1.77261,0,0,1.77261,22.2842,51.9586)">
        <path d="M123.752,357.111C124.224,347.525 103.795,309.283 92,269C78.379,312.482 54.812,345.352 55.487,357.889C57.167,389.126 47.972,438.336 46.34,457.59C45.773,464.283 52.567,473.285 46.445,476.047C39.239,479.298 9.495,477.381 3.103,475.404C-0.808,474.194 4.825,467.781 8.088,465.311C11.719,462.561 26.77,459.095 26.77,459.095C26.77,459.095 25.609,368.726 25,353C24.461,339.079 56.77,244.598 56.77,244.598L60,185L48.12,120.248L26.692,170L17.108,238.983C17.108,238.983 19.872,241.774 21.034,243.564C22.154,245.29 25.959,254.007 25.811,255.721C25.688,257.131 24.365,258.378 23.282,257.467C22.144,256.509 19.921,250.916 19.921,250.916C19.921,250.916 20.952,260.229 19.821,262.884C18.928,264.981 15.379,267.239 13.134,266.848C10.575,266.402 5.672,265.705 4.464,262.745C2.542,258.034 4.983,238.393 4.983,238.393L1.692,170C1.692,170 21.289,101.231 25,90.128C27.691,82.078 64.145,80.974 73.102,76.141C77.796,73.608 80.645,72.844 80.577,63.103C80.52,54.907 79.626,54.463 75.485,50.467C70.975,46.114 67.895,33.994 70.111,27.108C72.489,19.721 69.301,8.244 72.889,4.513C81.223,-4.154 106.47,-4.342 114.803,4.325C119.625,9.34 114.311,16.595 117.104,27.161C119.253,35.295 115.252,46.329 110.619,51.53C107.824,54.668 104.442,53.986 104.77,63.667C105.13,74.33 106.62,74.122 111.5,76.705C120.808,81.633 159.16,82.148 164,90.128C168.131,96.94 189.606,178.292 189.606,178.292L176.435,239.928C176.435,239.928 176.389,252.787 175.692,257.153C175.132,260.665 172.564,265.539 168.73,265.139C164.816,264.731 161.176,264.408 159.497,261.724C157.818,259.039 159.362,250.584 159.362,250.584C159.362,250.584 157.009,255.372 155.931,256.565C154.954,257.646 153.12,256.655 153.036,255.201C152.914,253.104 156.132,247.983 157.551,245.204C159.164,242.047 163.697,237.667 163.697,237.667L167.606,172.292L142.282,120.436L128.991,185.547L128.239,243.845C128.239,243.845 156.211,340.212 156,353C155.621,375.958 151.863,459.821 151.863,459.821C151.863,459.821 168.303,464.254 172.074,467.406C175.421,470.204 182.857,477.114 178.625,478.172C172.398,479.728 142.483,479.333 134.712,476.181C129.418,474.033 132.524,464.946 132,459.257C130.173,439.412 121.948,393.789 123.752,357.111Z" style="fill:rgb(226,226,226);fill-rule:nonzero;"/>
        <clipPath id="_clip1">
            <path d="M123.752,357.111C124.224,347.525 103.795,309.283 92,269C78.379,312.482 54.812,345.352 55.487,357.889C57.167,389.126 47.972,438.336 46.34,457.59C45.773,464.283 52.567,473.285 46.445,476.047C39.239,479.298 9.495,477.381 3.103,475.404C-0.808,474.194 4.825,467.781 8.088,465.311C11.719,462.561 26.77,459.095 26.77,459.095C26.77,459.095 25.609,368.726 25,353C24.461,339.079 56.77,244.598 56.77,244.598L60,185L48.12,120.248L26.692,170L17.108,238.983C17.108,238.983 19.872,241.774 21.034,243.564C22.154,245.29 25.959,254.007 25.811,255.721C25.688,257.131 24.365,258.378 23.282,257.467C22.144,256.509 19.921,250.916 19.921,250.916C19.921,250.916 20.952,260.229 19.821,262.884C18.928,264.981 15.379,267.239 13.134,266.848C10.575,266.402 5.672,265.705 4.464,262.745C2.542,258.034 4.983,238.393 4.983,238.393L1.692,170C1.692,170 21.289,101.231 25,90.128C27.691,82.078 64.145,80.974 73.102,76.141C77.796,73.608 80.645,72.844 80.577,63.103C80.52,54.907 79.626,54.463 75.485,50.467C70.975,46.114 67.895,33.994 70.111,27.108C72.489,19.721 69.301,8.244 72.889,4.513C81.223,-4.154 106.47,-4.342 114.803,4.325C119.625,9.34 114.311,16.595 117.104,27.161C119.253,35.295 115.252,46.329 110.619,51.53C107.824,54.668 104.442,53.986 104.77,63.667C105.13,74.33 106.62,74.122 111.5,76.705C120.808,81.633 159.16,82.148 164,90.128C168.131,96.94 189.606,178.292 189.606,178.292L176.435,239.928C176.435,239.928 176.389,252.787 175.692,257.153C175.132,260.665 172.564,265.539 168.73,265.139C164.816,264.731 161.176,264.408 159.497,261.724C157.818,259.039 159.362,250.584 159.362,250.584C159.362,250.584 157.009,255.372 155.931,256.565C154.954,257.646 153.12,256.655 153.036,255.201C152.914,253.104 156.132,247.983 157.551,245.204C159.164,242.047 163.697,237.667 163.697,237.667L167.606,172.292L142.282,120.436L128.991,185.547L128.239,243.845C128.239,243.845 156.211,340.212 156,353C155.621,375.958 151.863,459.821 151.863,459.821C151.863,459.821 168.303,464.254 172.074,467.406C175.421,470.204 182.857,477.114 178.625,478.172C172.398,479.728 142.483,479.333 134.712,476.181C129.418,474.033 132.524,464.946 132,459.257C130.173,439.412 121.948,393.789 123.752,357.111Z" clip-rule="nonzero"/>
        </clipPath>
        <g clip-path="url(#_clip1)">
            <g transform="matrix(0.56414,0,0,0.56414,-12.5714,-29.3119)">
                <path d="M157.908,143.165C157.908,143.165 177.291,162.13 186.556,161.571C200.738,160.715 214,147.031 214,147.031L214.759,180.563L158.759,162.063L157.908,143.165Z" style="fill-opacity:0.06;"/>
            </g>
        </g>
    </g>
    <g id="yeux" transform="matrix(1,0,0,1,1.89667,-0.283332)">
        <circle cx="169.926" cy="91.879" r="4.95" style="fill:rgb(112,112,112);"/>
    </g>
    <g id="yeux1" serif:id="yeux" transform="matrix(1,0,0,1,37.8967,-0.283332)">
        <circle cx="169.926" cy="91.879" r="4.95" style="fill:rgb(112,112,112);"/>
    </g>
    <g id="soursil" transform="matrix(-1.1294,-0.0722072,-0.072919,1.14053,405.162,1.21682)">
        <path d="M178,81.529C179.563,81.259 182.085,78.017 180.576,77.529C178.304,76.796 168.704,76.263 164.371,77.129C160.683,77.867 154.576,82.196 154.576,82.729C154.576,83.263 161.014,80.501 164.371,80.329C168.275,80.129 175.299,81.996 178,81.529Z" style="fill:rgb(112,112,112);"/>
    </g>
    <g id="Soursil" transform="matrix(1.1294,-0.0722072,0.072919,1.14053,-27.3958,1.21682)">
        <path d="M178,81.529C179.563,81.259 182.085,78.017 180.576,77.529C178.304,76.796 168.704,76.263 164.371,77.129C160.683,77.867 154.576,82.196 154.576,82.729C154.576,83.263 161.014,80.501 164.371,80.329C168.275,80.129 175.299,81.996 178,81.529Z" style="fill:rgb(112,112,112);"/>
    </g>
    <g id="poinnt" transform="matrix(1,0,0,1,-1.66771,76)">
        <path d="M188.763,312.553C180.334,312.553 173.49,319.396 173.49,327.825C173.49,336.255 180.334,343.098 188.763,343.098C197.192,343.098 204.035,336.255 204.035,327.825C204.035,319.396 197.192,312.553 188.763,312.553ZM188.763,314.878C195.908,314.878 201.71,320.68 201.71,327.825C201.71,334.971 195.908,340.772 188.763,340.772C181.617,340.772 175.816,334.971 175.816,327.825C175.816,320.68 181.617,314.878 188.763,314.878ZM188.763,317.85C194.268,317.85 198.738,322.32 198.738,327.825C198.738,333.331 194.268,337.801 188.763,337.801C183.257,337.801 178.788,333.331 178.788,327.825C178.788,322.32 183.257,317.85 188.763,317.85Z" style="fill:rgb(192,192,192);"/>
    </g>
    <g id="poinnt1" serif:id="poinnt" transform="matrix(1,0,0,1,-40.8464,-64)">
        <path d="M188.763,312.553C180.334,312.553 173.49,319.396 173.49,327.825C173.49,336.255 180.334,343.098 188.763,343.098C197.192,343.098 204.035,336.255 204.035,327.825C204.035,319.396 197.192,312.553 188.763,312.553ZM188.763,314.878C195.908,314.878 201.71,320.68 201.71,327.825C201.71,334.971 195.908,340.772 188.763,340.772C181.617,340.772 175.816,334.971 175.816,327.825C175.816,320.68 181.617,314.878 188.763,314.878ZM188.763,317.85C194.268,317.85 198.738,322.32 198.738,327.825C198.738,333.331 194.268,337.801 188.763,337.801C183.257,337.801 178.788,333.331 178.788,327.825C178.788,322.32 183.257,317.85 188.763,317.85Z" style="fill:rgb(192,192,192);"/>
    </g>
    <g id="poinnt2" serif:id="poinnt" transform="matrix(1,0,0,1,114,-119)">
        <path d="M188.763,312.553C180.334,312.553 173.49,319.396 173.49,327.825C173.49,336.255 180.334,343.098 188.763,343.098C197.192,343.098 204.035,336.255 204.035,327.825C204.035,319.396 197.192,312.553 188.763,312.553ZM188.763,314.878C195.908,314.878 201.71,320.68 201.71,327.825C201.71,334.971 195.908,340.772 188.763,340.772C181.617,340.772 175.816,334.971 175.816,327.825C175.816,320.68 181.617,314.878 188.763,314.878ZM188.763,317.85C194.268,317.85 198.738,322.32 198.738,327.825C198.738,333.331 194.268,337.801 188.763,337.801C183.257,337.801 178.788,333.331 178.788,327.825C178.788,322.32 183.257,317.85 188.763,317.85Z" style="fill:rgb(192,192,192);"/>
    </g>
    <g id="poinnt3" serif:id="poinnt" transform="matrix(1,0,0,1,-50.8215,274)">
        <path d="M188.763,312.553C180.334,312.553 173.49,319.396 173.49,327.825C173.49,336.255 180.334,343.098 188.763,343.098C197.192,343.098 204.035,336.255 204.035,327.825C204.035,319.396 197.192,312.553 188.763,312.553ZM188.763,314.878C195.908,314.878 201.71,320.68 201.71,327.825C201.71,334.971 195.908,340.772 188.763,340.772C181.617,340.772 175.816,334.971 175.816,327.825C175.816,320.68 181.617,314.878 188.763,314.878ZM188.763,317.85C194.268,317.85 198.738,322.32 198.738,327.825C198.738,333.331 194.268,337.801 188.763,337.801C183.257,337.801 178.788,333.331 178.788,327.825C178.788,322.32 183.257,317.85 188.763,317.85Z" style="fill:rgb(192,192,192);"/>
    </g>
</svg>
