<?xml version="1.0" encoding="UTF-8" standalone="no"?>
<!DOCTYPE svg PUBLIC "-//W3C//DTD SVG 1.1//EN" "http://www.w3.org/Graphics/SVG/1.1/DTD/svg11.dtd">
<svg width="100%" height="100%" viewBox="0 0 1920 512" version="1.1" xmlns="http://www.w3.org/2000/svg" xmlns:xlink="http://www.w3.org/1999/xlink" xml:space="preserve" xmlns:serif="http://www.serif.com/" style="fill-rule:evenodd;clip-rule:evenodd;stroke-linejoin:round;stroke-miterlimit:2;">
    <g transform="matrix(16.2469,0,0,16.2469,534.83,221.727)">
        <path d="M6.35,11.075C5.183,11.075 4.208,10.825 3.425,10.325C2.658,9.825 2.075,9.133 1.675,8.25C1.275,7.367 1.042,6.342 0.975,5.175L3.475,4.5C3.525,5.217 3.633,5.908 3.8,6.575C3.983,7.242 4.275,7.792 4.675,8.225C5.075,8.642 5.633,8.85 6.35,8.85C7.083,8.85 7.633,8.65 8,8.25C8.383,7.833 8.575,7.242 8.575,6.475C8.575,5.558 8.367,4.825 7.95,4.275C7.533,3.708 7.008,3.142 6.375,2.575L2.975,-0.425C2.308,-1.008 1.817,-1.642 1.5,-2.325C1.183,-3.025 1.025,-3.883 1.025,-4.9C1.025,-6.383 1.45,-7.533 2.3,-8.35C3.15,-9.167 4.308,-9.575 5.775,-9.575C6.575,-9.575 7.275,-9.467 7.875,-9.25C8.492,-9.05 9,-8.733 9.4,-8.3C9.817,-7.867 10.142,-7.317 10.375,-6.65C10.625,-6 10.792,-5.233 10.875,-4.35L8.475,-3.7C8.425,-4.367 8.325,-4.975 8.175,-5.525C8.025,-6.092 7.758,-6.542 7.375,-6.875C7.008,-7.225 6.475,-7.4 5.775,-7.4C5.075,-7.4 4.525,-7.208 4.125,-6.825C3.742,-6.458 3.55,-5.908 3.55,-5.175C3.55,-4.558 3.65,-4.05 3.85,-3.65C4.067,-3.25 4.408,-2.842 4.875,-2.425L8.3,0.575C9.067,1.242 9.742,2.042 10.325,2.975C10.908,3.892 11.2,4.983 11.2,6.25C11.2,7.25 10.992,8.117 10.575,8.85C10.158,9.567 9.583,10.117 8.85,10.5C8.133,10.883 7.3,11.075 6.35,11.075ZM15.241,11.05C14.675,11.05 14.233,10.9 13.916,10.6C13.6,10.3 13.375,9.925 13.241,9.475C13.125,9.025 13.066,8.567 13.066,8.1L13.066,-3.6L15.741,-3.6L15.741,7.3C15.741,7.817 15.816,8.225 15.966,8.525C16.116,8.808 16.425,8.95 16.891,8.95C17.191,8.95 17.5,8.867 17.816,8.7C18.15,8.517 18.466,8.3 18.766,8.05L18.766,-3.6L21.441,-3.6L21.441,10.85L18.766,10.85L18.766,9.425C18.3,9.875 17.766,10.258 17.166,10.575C16.583,10.892 15.941,11.05 15.241,11.05ZM24.177,15.6L24.177,-3.6L26.852,-3.6L26.852,-2.45C27.169,-2.817 27.552,-3.133 28.002,-3.4C28.452,-3.667 28.985,-3.8 29.602,-3.8C30.352,-3.8 30.944,-3.6 31.377,-3.2C31.827,-2.817 32.16,-2.325 32.377,-1.725C32.594,-1.142 32.735,-0.542 32.802,0.075C32.869,0.675 32.902,1.192 32.902,1.625L32.902,5.125C32.902,6.142 32.802,7.108 32.602,8.025C32.402,8.925 32.035,9.658 31.502,10.225C30.985,10.775 30.252,11.05 29.302,11.05C28.785,11.05 28.327,10.925 27.927,10.675C27.527,10.408 27.169,10.108 26.852,9.775L26.852,15.6L24.177,15.6ZM28.777,8.95C29.244,8.95 29.577,8.783 29.777,8.45C29.977,8.1 30.102,7.633 30.152,7.05C30.202,6.467 30.227,5.825 30.227,5.125L30.227,1.625C30.227,1.025 30.194,0.475 30.127,-0.025C30.06,-0.542 29.919,-0.95 29.702,-1.25C29.485,-1.55 29.144,-1.7 28.677,-1.7C28.327,-1.7 27.994,-1.625 27.677,-1.475C27.36,-1.325 27.085,-1.15 26.852,-0.95L26.852,8.3C27.102,8.483 27.385,8.642 27.702,8.775C28.019,8.892 28.377,8.95 28.777,8.95ZM39.334,11.05C38.201,11.05 37.326,10.833 36.709,10.4C36.093,9.95 35.659,9.3 35.409,8.45C35.176,7.583 35.059,6.525 35.059,5.275L35.059,1.975C35.059,0.692 35.184,-0.375 35.434,-1.225C35.684,-2.075 36.118,-2.717 36.734,-3.15C37.368,-3.583 38.234,-3.8 39.334,-3.8C40.551,-3.8 41.443,-3.55 42.009,-3.05C42.593,-2.55 42.976,-1.825 43.159,-0.875C43.343,0.058 43.434,1.183 43.434,2.5L43.434,3.675L37.734,3.675L37.734,6.575C37.734,7.158 37.784,7.633 37.884,8C38.001,8.367 38.176,8.642 38.409,8.825C38.659,8.992 38.976,9.075 39.359,9.075C39.759,9.075 40.059,8.983 40.259,8.8C40.476,8.6 40.618,8.325 40.684,7.975C40.768,7.608 40.809,7.183 40.809,6.7L40.809,5.825L43.409,5.825L43.409,6.375C43.409,7.825 43.101,8.967 42.484,9.8C41.868,10.633 40.818,11.05 39.334,11.05ZM37.734,2.225L40.809,2.225L40.809,0.925C40.809,0.325 40.776,-0.175 40.709,-0.575C40.643,-0.992 40.501,-1.3 40.284,-1.5C40.084,-1.717 39.759,-1.825 39.309,-1.825C38.876,-1.825 38.543,-1.725 38.309,-1.525C38.093,-1.325 37.943,-0.983 37.859,-0.5C37.776,-0.033 37.734,0.617 37.734,1.45L37.734,2.225ZM45.932,10.85L45.932,-3.6L48.607,-3.6L48.607,-1.55C49.14,-2.433 49.674,-3.025 50.207,-3.325C50.74,-3.625 51.274,-3.775 51.807,-3.775L51.982,-3.775C52.049,-3.775 52.132,-3.767 52.232,-3.75L52.232,-0.8C52.032,-0.883 51.799,-0.95 51.532,-1C51.282,-1.067 51.024,-1.1 50.757,-1.1C50.34,-1.1 49.957,-1 49.607,-0.8C49.274,-0.617 48.94,-0.25 48.607,0.3L48.607,10.85L45.932,10.85ZM54.114,10.85L54.114,-9.4L61.939,-9.4L61.939,-7.375L56.939,-7.375L56.939,-0.625L60.814,-0.625L60.814,1.375L56.939,1.375L56.939,10.85L54.114,10.85ZM63.83,10.85L63.83,-3.6L66.505,-3.6L66.505,10.85L63.83,10.85ZM63.83,-5.75L63.83,-8.55L66.505,-8.55L66.505,-5.75L63.83,-5.75ZM73.218,11.05C72.468,11.05 71.859,10.908 71.393,10.625C70.943,10.342 70.609,9.942 70.393,9.425C70.193,8.908 70.093,8.3 70.093,7.6L70.093,-1.825L68.568,-1.825L68.568,-3.6L70.093,-3.6L70.093,-7.825L72.768,-7.825L72.768,-3.6L75.093,-3.6L75.093,-1.825L72.768,-1.825L72.768,7.425C72.768,7.992 72.859,8.4 73.043,8.65C73.226,8.883 73.576,9 74.093,9C74.226,9 74.376,8.992 74.543,8.975C74.726,8.958 74.901,8.942 75.068,8.925L75.068,10.9C74.734,10.95 74.426,10.983 74.143,11C73.859,11.033 73.551,11.05 73.218,11.05Z" style="fill-rule:nonzero;"/>
    </g>
    <g transform="matrix(16.2469,0,0,16.2469,161.152,56.8217)">
        <path d="M19,0L0,0L0,4.75L14.273,4.75L14.273,21L19,21L19,0Z" style="fill:rgb(246,60,88);fill-rule:nonzero;"/>
    </g>
</svg>
