<?xml version="1.0" encoding="utf-8"?>
<!-- Generator: Adobe Illustrator 24.1.2, SVG Export Plug-In . SVG Version: 6.00 Build 0)  -->
<svg version="1.1" id="Calque_1" xmlns="http://www.w3.org/2000/svg" xmlns:xlink="http://www.w3.org/1999/xlink" x="0px" y="0px"
	 viewBox="0 0 664 830" style="enable-background:new 0 0 664 830;" xml:space="preserve">
<style type="text/css">
	.st0{fill:#FFFFFF;}
</style>
<g>
	<path class="st0" d="M173.32,830H52.68C23.58,830,0,806.42,0,777.32V52.68C0,23.58,23.58,0,52.68,0h120.65
		C202.42,0,226,23.58,226,52.68v724.65C226,806.42,202.42,830,173.32,830z"/>
</g>
<g>
	<path class="st0" d="M611.32,830H490.68c-29.09,0-52.68-23.58-52.68-52.68V52.68C438,23.58,461.58,0,490.68,0h120.65
		C640.42,0,664,23.58,664,52.68v724.65C664,806.42,640.42,830,611.32,830z"/>
</g>
</svg>
