<?xml version="1.0" encoding="utf-8"?>
<!-- Generator: Adobe Illustrator 24.1.2, SVG Export Plug-In . SVG Version: 6.00 Build 0)  -->
<svg version="1.1" id="Calque_1" xmlns="http://www.w3.org/2000/svg" xmlns:xlink="http://www.w3.org/1999/xlink" x="0px" y="0px"
	 viewBox="0 0 1000 510" style="enable-background:new 0 0 1000 510;" xml:space="preserve">
<style type="text/css">
	.st0{fill:#FFFFFF;}
	.st1{fill:#A8A8A8;}
</style>
<g>
	<path class="st0" d="M145.94,375.4c5.68,18.22,19.63,27.77,36.73,32.48c5,1.38,14.26-1.14,16.57-4.93
		c2.22-3.64-0.07-13.54-3.78-16.68c-15.8-13.36-16.25-30.43-15.09-48.61c0.57-8.91,4.04-13.55,13.3-15.92
		c25.76-6.59,51-15.26,76.86-21.35c13.47-3.17,27.82-2.46,41.74-3.86c8.71-0.88,17.39-2.24,26.02-3.7
		c21.05-3.56,42.02-18.62,63.24-0.13c1.25,1.09,4.6,0.99,6.33,0.14c19.52-9.7,38.91-19.66,58.34-29.55
		c29.84-12.86,60.14-24.77,89.42-38.8c40.87-19.58,84.25-24.09,129.83-25.97c2.42,23.32,5.52,45.78,6.94,68.35
		c2.63,41.92,4.45,83.89,6.2,125.86c0.51,12.21,6.74,16.56,18.01,16.54c17.66-0.04,35.32,0.55,52.97,0.14
		c4.7-0.11,9.33-2.91,14-4.47c-0.14-1.37-0.28-2.74-0.42-4.1c-19.86-5.41-39.72-10.82-58.2-15.85
		c11.31-83.36,22.37-164.8,33.57-247.29c7.5,0,14.97,0,23.58,0c1.33,14.58,4.62,24.05,24.28,22.45c10.9-0.89,20.28,1.65,30.64-5.92
		c7.96-5.81,20.05-10.62,29.23-9.16c20.39,3.25,18.8-10.13,19.43-21.59c0.54-9.83-0.35-19.97-2.2-29.66
		c-3.51-18.39-16.29-29.46-33.65-32.85c-19.18-3.75-40.03-5.57-52.99,13.62c-10.21,15.11-21.75,15.38-37.08,10.28
		c-43.46-14.44-85.79-12.78-127.13,9.09c-19.03,10.07-40.02,16.39-59.28,26.08c-21.83,10.98-43.72,11.74-67.65,9.38
		c-13.73-1.35-28.4,6.88-42.65,10.79c-7.59,5.85-18.58,10.16-22.08,17.87c-7.84,17.25-22.63,25.05-36.91,34.2
		c-11.18,7.17-22.77,13.71-33.83,21.06c-30.63,20.38-61.08,37.65-101.01,34.98c-16.02-1.07-33.07,13.09-49.65,20.31
		c-13.99,7.08-27.99,14.16-41.98,21.23c-8.47,3.49-16.84,7.26-25.43,10.41c-13.84,5.08-28,9.31-41.57,15.01
		c-2.35,0.99-4.64,9.12-3.16,11.09c10.11,13.42,21.23,26.08,32.03,38.98C141.63,368.7,143.79,372.05,145.94,375.4z"/>
	<path class="st0" d="M177.6,289.87c13.99-7.08,27.99-14.16,41.98-21.23c22.52-11.18,45.44-21.23,71.45-18.23
		c18.75,2.16,34.84-4.12,50.13-13.85c6.49-4.13,12.9-8.37,19.97-12.96c9.02,18.81,17.49,36.49,27.62,57.62
		c-34.29-4-62.48,19.52-94.85,8.27c-41.79,11.9-83.5,24.09-125.49,35.27c-4.69,1.25-12.15-2.04-15.89-5.7
		c-1.78-1.75,0.67-10.83,3.82-13.95C162.46,299.04,170.42,294.84,177.6,289.87z"/>
	<path class="st1" d="M463.06,140.2c14.25-3.91,28.92-12.14,42.65-10.79c23.93,2.36,45.82,1.6,67.65-9.38
		c19.26-9.69,40.25-16.01,59.28-26.08c41.33-21.87,83.67-23.52,127.13-9.09c15.33,5.09,26.87,4.83,37.08-10.28
		c12.96-19.19,33.81-17.37,52.99-13.62c17.36,3.39,30.13,14.47,33.65,32.85c1.85,9.7,2.74,19.83,2.2,29.66
		c-0.63,11.47,0.96,24.84-19.43,21.59c-9.18-1.46-21.27,3.34-29.23,9.16c-10.36,7.57-19.73,5.03-30.64,5.92
		c-19.66,1.6-22.95-7.87-24.28-22.45c-8.6,0-16.08,0-23.58,0c-11.2,82.49-22.25,163.93-33.57,247.29
		c18.47,5.03,38.34,10.44,58.2,15.85c0.14,1.37,0.28,2.74,0.42,4.1c-4.66,1.56-9.3,4.36-14,4.47c-17.64,0.41-35.31-0.17-52.97-0.14
		c-11.28,0.02-17.51-4.33-18.01-16.54c-1.75-41.97-3.58-83.94-6.2-125.86c-1.41-22.56-4.51-45.02-6.94-68.35
		c-45.59,1.87-88.96,6.39-129.83,25.97c-29.28,14.03-59.58,25.94-89.42,38.8c0,0,0.25,0.31,0.25,0.31
		c18.76-10.03,37.3-20.5,56.36-29.93c12.54-6.2,25.82-10.89,36.59-15.35c-8.47-26.67-15.64-50.45-23.84-73.88
		c-1.4-3.99-6.78-8.14-11.1-9.28c-20.92-5.51-41.51-2.97-61.53,4.88L463.06,140.2z M684.11,163.83c0.56,0.24,1.11,0.48,1.67,0.72
		c3.54,31.27,8.21,62.47,10.34,93.84c2.99,44.16,3.77,88.46,6.44,132.64c0.3,4.97,6.44,13.38,10.37,13.69
		c18.77,1.45,37.71,0.65,56.59,0.65c0.09-1.35,0.18-2.71,0.27-4.06c-12.05-3.07-23.98-6.73-36.17-9.04
		c-11.43-2.16-15.26-6.56-12.9-19.11c8.27-44.05,15.87-88.26,22.29-132.62c3.95-27.26,4.56-54.99,8.04-82.33
		c2.79-21.9,5.96-43.1-16.09-58.34c18.51,3.63,19.08,19.7,23.89,33.65c9.23,0,17.84,0,23.87,0c4.36,8.85,6.26,19.69,11.27,21.4
		c9.67,3.3,21.77,3.88,31.66,1.2c17.46-4.73,34.02-12.76,54.67-20.87c0-9.88,1.24-24.06-0.31-37.92
		c-2.01-18.03-14.45-28.8-31.25-32.67c-17.73-4.09-36.87-4.87-48.42,12.36c-11.77,17.56-25.58,18.06-42.88,11.51
		c-30-11.36-61.71-14.53-91.4-3.77c-42.98,15.56-84.28,35.74-129.34,55.26c9.37,25.44,18.75,50.91,26.48,71.89
		c43.09-7.46,81.26-14.08,120.92-20.95C684.11,182.08,684.11,172.96,684.11,163.83z"/>
	<path class="st1" d="M177.6,289.87c-7.19,4.97-15.14,9.17-21.24,15.23c-3.15,3.13-5.6,12.2-3.82,13.95
		c3.73,3.67,11.2,6.95,15.89,5.7c41.98-11.18,83.7-23.37,125.49-35.27c32.37,11.25,60.56-12.27,94.85-8.27
		c-10.13-21.13-18.6-38.81-27.62-57.62c-7.07,4.59-13.49,8.83-19.97,12.96c-15.29,9.72-31.38,16.01-50.13,13.85
		c-26.01-3-48.93,7.05-71.45,18.23c16.58-7.23,33.62-21.38,49.65-20.31c39.93,2.67,70.38-14.6,101.01-34.98
		c11.05-7.36,22.64-13.9,33.83-21.06c14.28-9.15,29.07-16.95,36.91-34.2c3.5-7.71,14.49-12.02,22.08-17.87c0,0-0.13-0.15-0.13-0.15
		c-5.68,5.78-13.59,10.58-16.64,17.52c-10.45,23.79-32.64,33.24-52.29,45.95c-9.2,5.95-18.56,11.67-29.86,18.76
		c10.65,19.66,20.9,38.45,31.02,57.3c4.71,8.77,10.64,11.07,20.2,6.48c16.76-8.04,34.03-15.03,51.08-22.45c0,0-0.25-0.31-0.25-0.31
		c-19.43,9.89-38.82,19.85-58.34,29.55c-1.72,0.86-5.08,0.95-6.33-0.14c-21.21-18.49-42.18-3.43-63.24,0.13
		c-8.64,1.46-17.31,2.82-26.02,3.7c-13.92,1.4-28.28,0.68-41.74,3.86c-25.86,6.09-51.1,14.77-76.86,21.35
		c-9.26,2.37-12.73,7.01-13.3,15.92c-1.16,18.18-0.71,35.25,15.09,48.61c3.71,3.13,6,13.04,3.78,16.68
		c-2.31,3.78-11.57,6.3-16.57,4.93c-17.09-4.7-31.04-14.26-36.73-32.48c11.94,9.44,23.53,19.38,36.06,27.96
		c2.96,2.03,9.08-0.56,13.74-1.02c-1.34-4.86-1.12-11.49-4.28-14.27c-13.06-11.48-16.13-25.8-15.11-42.03
		c0.38-6,0.06-12.05,0.06-15.57c-8.71-1.22-18.44,0.21-23.34-4c-5.61-4.82-6.91-14.64-10.5-23.28
		c-10.5,5.59-21.48,11.44-33.89,18.06c10.7,15.33,20.74,29.73,30.79,44.12c-10.8-12.9-21.92-25.56-32.03-38.98
		c-1.48-1.97,0.81-10.1,3.16-11.09c13.56-5.7,27.73-9.93,41.57-15.01C160.77,297.13,169.13,293.36,177.6,289.87z"/>
	<path class="st0" d="M139.48,365.35c-10.04-14.39-20.09-28.79-30.79-44.12c12.41-6.61,23.39-12.46,33.89-18.06
		c3.59,8.64,4.89,18.46,10.5,23.28c4.89,4.21,14.63,2.78,23.34,4c0,3.53,0.32,9.57-0.06,15.57c-1.02,16.23,2.04,30.55,15.11,42.03
		c3.16,2.78,2.94,9.41,4.28,14.27c-4.66,0.46-10.78,3.05-13.74,1.02c-12.53-8.57-24.12-18.51-36.06-27.96
		C143.79,372.05,141.63,368.7,139.48,365.35z"/>
	<path class="st0" d="M684.11,163.83c0,9.13,0,18.26,0,27.13c-39.66,6.87-77.84,13.48-120.92,20.95
		c-7.73-20.98-17.11-46.45-26.48-71.89c45.06-19.53,86.37-39.7,129.34-55.26c29.7-10.75,61.41-7.58,91.4,3.77
		c17.3,6.55,31.11,6.05,42.88-11.51c11.55-17.23,30.68-16.45,48.42-12.36c16.8,3.87,29.24,14.65,31.25,32.67
		c1.55,13.86,0.31,28.04,0.31,37.92c-20.65,8.11-37.21,16.14-54.67,20.87c-9.9,2.68-21.99,2.11-31.66-1.2
		c-5.02-1.71-6.92-12.55-11.27-21.4c-6.03,0-14.65,0-23.87,0c-4.81-13.95-5.37-30.02-23.89-33.65
		c22.05,15.24,18.88,36.44,16.09,58.34c-3.48,27.34-4.09,55.07-8.04,82.33c-6.42,44.36-14.02,88.57-22.29,132.62
		c-2.36,12.55,1.47,16.94,12.9,19.11c12.19,2.31,24.13,5.97,36.17,9.04c-0.09,1.35-0.18,2.71-0.27,4.06
		c-18.88,0-37.82,0.8-56.59-0.65c-3.93-0.3-10.07-8.72-10.37-13.69c-2.67-44.18-3.45-88.49-6.44-132.64
		c-2.12-31.37-6.8-62.57-10.34-93.84C685.22,164.31,684.66,164.07,684.11,163.83z M810.95,90.07c21.6-6.06,23.87,7.2,23.18,22.73
		c13.9,2.57,33.14-6.82,33.97,18.42c3.34-26.51-16.03-20.79-29.6-21.96C835.45,83.77,834.98,83.43,810.95,90.07z"/>
	<path class="st0" d="M466.45,263.6c-17.05,7.43-34.32,14.41-51.08,22.45c-9.56,4.59-15.49,2.29-20.2-6.48
		c-10.12-18.85-20.37-37.64-31.02-57.3c11.3-7.09,20.65-12.8,29.86-18.76c19.65-12.71,41.84-22.16,52.29-45.95
		c3.05-6.94,10.96-11.74,16.64-17.52c20.02-7.86,40.61-10.39,61.53-4.88c4.32,1.14,9.7,5.29,11.1,9.28
		c8.2,23.42,15.37,47.21,23.84,73.88c-10.77,4.46-24.06,9.15-36.59,15.35C503.75,243.1,485.21,253.57,466.45,263.6z"/>
	<path class="st1" d="M810.95,90.07c24.03-6.64,24.5-6.3,27.56,19.19c13.57,1.17,32.94-4.55,29.6,21.96
		c-0.83-25.23-20.07-15.85-33.97-18.42C834.82,97.27,832.55,84.01,810.95,90.07z"/>
</g>
</svg>
